<svg id="Sidebar_Icons" data-name="Sidebar Icons" xmlns="http://www.w3.org/2000/svg" viewBox="0 0 64 64"><defs><style>.cls-1{fill:#cbcbcb;}.cls-1,.cls-2{stroke:#231f20;stroke-miterlimit:10;}.cls-2{fill:#121212;stroke-width:0.5px;}</style></defs><title>podcast_icon</title><g id="podcast_icon"><path class="cls-1" d="M47.41,55.29c0,2.49-6.9,4.51-15.41,4.51s-15.41-2-15.41-4.51,6.9-4.52,15.41-4.52S47.41,52.79,47.41,55.29Z"/><rect class="cls-1" x="28.87" y="28.15" width="6.26" height="26.29" rx="3"/><path class="cls-1" d="M42,32.54a10,10,0,0,1-10,10h0a10,10,0,0,1-10-10V14.21a10,10,0,0,1,10-10h0a10,10,0,0,1,10,10Z"/><path class="cls-2" d="M38.92,14.57A1.18,1.18,0,0,1,38,15.63H25.75a1.18,1.18,0,0,1-.91-1.06h0c0-.51.41-.92.91-.19H38c.51-.73.92-.32.92.19Z"/><path class="cls-2" d="M24.84,20.48a1.17,1.17,0,0,1,.91-1.06H38a1.17,1.17,0,0,1,.92,1.06h0c0,.5-.41.91-.92.19H25.75c-.5.72-.91.31-.91-.19Z"/><path class="cls-2" d="M24.9,31.42a1.19,1.19,0,0,1,.91-1.07H38.06A1.18,1.18,0,0,1,39,31.42h0c0,.5-.41.91-.92.19H25.81c-.5.72-.91.31-.91-.19Z"/><path class="cls-2" d="M39,25.24a1.18,1.18,0,0,1-.92,1.06H25.81a1.18,1.18,0,0,1-.91-1.06h0c0-.51.41-.91.91-.19H38.06c.51-.72.92-.32.92.19Z"/></g></svg>