<svg id="Layer_1" data-name="Layer 1" xmlns="http://www.w3.org/2000/svg" viewBox="0 0 64 64"><defs><style>.cls-1,.cls-2{fill:#cbcbcb;}.cls-1,.cls-3{stroke:#231f20;stroke-miterlimit:10;}.cls-3{fill:none;}</style></defs><title>radio_icon</title><g id="radio_icon"><circle class="cls-1" cx="31.98" cy="32" r="6.91"/><path class="cls-2" d="M41,46.21l-.51-.38A1.74,1.74,0,0,1,40,43.35a17.84,17.84,0,0,0,0-22.71,1.73,1.73,0,0,1,.49-2.47l.51-.38a2.27,2.27,0,0,1,3,.33,21.81,21.81,0,0,1,0,27.76A2.27,2.27,0,0,1,41,46.21Z"/><path class="cls-3" d="M41,46.21l-.51-.38A1.74,1.74,0,0,1,40,43.35a17.84,17.84,0,0,0,0-22.71,1.73,1.73,0,0,1,.49-2.47l.51-.38a2.27,2.27,0,0,1,3,.33,21.81,21.81,0,0,1,0,27.76A2.27,2.27,0,0,1,41,46.21Z"/><path class="cls-2" d="M48.77,52.52,48.26,52a2.39,2.39,0,0,1-.47-3,25.75,25.75,0,0,0,0-33.94,2.39,2.39,0,0,1,.47-3l.51-.55a2.05,2.05,0,0,1,3.07-.22,31.5,31.5,0,0,1,0,41.48A2.06,2.06,0,0,1,48.77,52.52Z"/><path class="cls-3" d="M48.77,52.52,48.26,52a2.39,2.39,0,0,1-.47-3,25.75,25.75,0,0,0,0-33.94,2.39,2.39,0,0,1,.47-3l.51-.55a2.05,2.05,0,0,1,3.07-.22,31.5,31.5,0,0,1,0,41.48A2.06,2.06,0,0,1,48.77,52.52Z"/><path class="cls-2" d="M23.43,45.83l-.51.38a2.27,2.27,0,0,1-3-.33,21.83,21.83,0,0,1,0-27.76,2.27,2.27,0,0,1,3-.33l.51.38a1.73,1.73,0,0,1,.49,2.47,17.84,17.84,0,0,0,0,22.71A1.74,1.74,0,0,1,23.43,45.83Z"/><path class="cls-3" d="M23.43,45.83l-.51.38a2.27,2.27,0,0,1-3-.33,21.83,21.83,0,0,1,0-27.76,2.27,2.27,0,0,1,3-.33l.51.38a1.73,1.73,0,0,1,.49,2.47,17.84,17.84,0,0,0,0,22.71A1.74,1.74,0,0,1,23.43,45.83Z"/><path class="cls-2" d="M15.74,52l-.52.55a2.06,2.06,0,0,1-3.06.22,31.5,31.5,0,0,1,0-41.48,2,2,0,0,1,3.06.22c.18.18.35.37.52.55a2.38,2.38,0,0,1,.46,3A25.77,25.77,0,0,0,16.2,49,2.38,2.38,0,0,1,15.74,52Z"/><path class="cls-3" d="M15.74,52l-.52.55a2.06,2.06,0,0,1-3.06.22,31.5,31.5,0,0,1,0-41.48,2,2,0,0,1,3.06.22c.18.18.35.37.52.55a2.38,2.38,0,0,1,.46,3A25.77,25.77,0,0,0,16.2,49,2.38,2.38,0,0,1,15.74,52Z"/></g></svg>
