<svg id="Layer_1" data-name="Layer 1" xmlns="http://www.w3.org/2000/svg" viewBox="0 0 64 64"><defs><style>.cls-1,.cls-2{fill:#cbcbcb;stroke:#231f20;stroke-miterlimit:10;}.cls-2{stroke-width:0.7px;}</style></defs><title>discover_icon</title><g id="discover_icon"><path class="cls-1" d="M25.84,20.21s2.19-6.35-3.72-7.84c-6-1.28-7.24,5.76-7.24,5.76Z"/><path class="cls-1" d="M37.39,20.78S35.06,13.85,41,12.36c6-1.28,7.39,6.33,7.39,6.33Z"/><path class="cls-1" d="M4.53,39.91S5.44,14.44,21,17.32c15.52,3.19,5.23,27.51,5.23,27.51Z"/><path class="cls-1" d="M59.46,39.68S58.56,14.2,43,17.08c-15.51,3.19-5.22,27.51-5.22,27.51Z"/><circle class="cls-1" cx="15.81" cy="40.51" r="11.27" transform="translate(-24.01 23.04) rotate(-45)"/><path class="cls-1" d="M59.46,40.27A11.27,11.27,0,1,1,48.19,29,11.26,11.26,0,0,1,59.46,40.27Z"/><path class="cls-1" d="M36.06,40.39A4.06,4.06,0,0,1,32,44.45h0a4.06,4.06,0,0,1-4.06-4.06l.54-14.53c0-2.24,1.28-4.17,3.52-4.17h0c2.24,0,3.28,2,3.28,4.3Z"/><path class="cls-2" d="M34.43,40.54A2.44,2.44,0,1,1,32,38.11,2.43,2.43,0,0,1,34.43,40.54Z"/></g></svg>