<svg id="Sidebar_Icons" data-name="Sidebar Icons" xmlns="http://www.w3.org/2000/svg" viewBox="0 0 64 64"><defs><style>.cls-1{fill:#cbcbcb;stroke:#231f20;stroke-miterlimit:10;}</style></defs><title>subscriptions_icon_rasterized</title><g id="subscriptions_icon_rasterized_" data-name="subscriptions_icon (rasterized)"><path class="cls-1" d="M14.44,49.51l5.79-7c3.25,2.75,7.38,4.69,11.11,4.69,4.21,0,6.28-1.66,6.28-4.35s-2.56-3.72-6.49-5.38L25.27,35c-4.62-1.86-9-5.73-9-12.28,0-7.45,6.63-13.38,16-13.38A20.82,20.82,0,0,1,46.72,15.3l-5.17,6.42c-3-2.28-5.73-3.59-9.31-3.59s-5.73,1.52-5.73,4.07c0,2.76,3,3.72,6.83,5.31l5.79,2.35c5.45,2.2,8.9,5.86,8.9,12.2C48,49.51,41.82,56,31.06,56A24.61,24.61,0,0,1,14.44,49.51Z"/><polygon class="cls-1" points="33.86 59.63 28.66 59.63 28.66 38.64 33.86 40.68 33.86 59.63"/><polygon class="cls-1" points="33.83 25.45 28.66 23.43 28.66 4.36 33.86 4.36 33.83 25.45"/></g></svg>