<svg id="Layer_1" data-name="Layer 1" xmlns="http://www.w3.org/2000/svg" viewBox="0 0 64 64"><defs><style>.cls-1{fill:#cbcbcb;}.cls-2{fill:#231f20;}</style></defs><title>profile_icon</title><g id="profile_icon"><path class="cls-1" d="M32,59.39c-12.68,0-23-5.48-23-12.22S19.32,34.94,32,34.94s23,5.49,23,12.23S44.67,59.39,32,59.39Z"/><path class="cls-2" d="M32,35.45c12.4,0,22.49,5.25,22.49,11.72S44.4,58.89,32,58.89,9.51,53.63,9.51,47.17,19.6,35.45,32,35.45m0-1c-13,0-23.49,5.69-23.49,12.72S19,59.89,32,59.89s23.49-5.7,23.49-12.72S45,34.45,32,34.45Z"/><path class="cls-1" d="M32,31a13.2,13.2,0,1,1,13.2-13.2A13.21,13.21,0,0,1,32,31Z"/><path class="cls-2" d="M32,5.11a12.7,12.7,0,1,1-12.7,12.7A12.71,12.71,0,0,1,32,5.11m0-1a13.7,13.7,0,1,0,13.7,13.7A13.7,13.7,0,0,0,32,4.11Z"/></g></svg>