<svg id="Layer_1" data-name="Layer 1" xmlns="http://www.w3.org/2000/svg" viewBox="0 0 64 64"><defs><style>.cls-1{fill:#cbcbcb;}.cls-1,.cls-2{stroke:#231f20;stroke-miterlimit:10;}.cls-2{fill:#121212;}</style></defs><title>settings_icon</title><g id="settings_icon"><polygon class="cls-1" points="41.42 13.2 22.84 13.2 28.21 4.39 35.91 4.39 41.42 13.2"/><polygon class="cls-1" points="20.95 14.84 10.82 29.64 6.73 20.56 10.93 14.43 20.95 14.84"/><polygon class="cls-1" points="43.05 15.4 53.18 30.2 57.26 21.12 53.07 14.99 43.05 15.4"/><polygon class="cls-1" points="43.05 50.41 53.18 35.6 57.26 44.68 53.07 50.81 43.05 50.41"/><polygon class="cls-1" points="20.95 50.41 10.82 35.6 6.73 44.68 10.93 50.81 20.95 50.41"/><polygon class="cls-1" points="41.42 50.8 22.84 50.8 28.21 59.61 35.91 59.61 41.42 50.8"/><path class="cls-1" d="M53.54,32.28a21.41,21.41,0,1,1-21.41-21.4A21.41,21.41,0,0,1,53.54,32.28Z"/><path class="cls-2" d="M41.82,32.28a9.69,9.69,0,1,1-9.69-9.68A9.69,9.69,0,0,1,41.82,32.28Z"/></g></svg>