<svg id="Sidebar_Icons" data-name="Sidebar Icons" xmlns="http://www.w3.org/2000/svg" viewBox="0 0 64 64"><defs><style>.cls-1{fill:#cbcbcb;stroke:#231f20;stroke-miterlimit:10;}.cls-2{fill:#121212;}</style></defs><title>messages_icon</title><g id="Navbar_Icons" data-name="Navbar Icons"><path class="cls-1" d="M59.8,46.32a3.57,3.57,0,0,1-3.71,3.42H7.9a3.57,3.57,0,0,1-3.7-3.42V18.75a3.57,3.57,0,0,1,3.7-3.42H56.09a3.57,3.57,0,0,1,3.71,3.42Z"/><path class="cls-2" d="M32,39.61S28.7,41.75,6.18,18.22C6,17.15,7,17.67,7,17.67s21.59,18.8,24.85,18.56A2.48,2.48,0,0,1,32,39.61Z"/><path class="cls-2" d="M31.63,39.61s3.3,2.14,25.83-21.39c.18-1.07-.86-.55-.86-.55S35,36.47,31.75,36.23A2.48,2.48,0,0,0,31.63,39.61Z"/><path class="cls-2" d="M26.86,37.15S13.65,46.23,9.14,47.36c-1.27.22-.62-.72-.62-.72L24.21,35.15Z"/><path class="cls-2" d="M36.29,37.52S49.49,46.6,54,47.74c1.27.22.62-.73.62-.73L38.93,35.53Z"/></g></svg>