<svg id="Sidebar_Icons" data-name="Sidebar Icons" xmlns="http://www.w3.org/2000/svg" viewBox="0 0 64 64"><defs><style>.cls-1{fill:#cbcbcb;stroke:#231f20;stroke-miterlimit:10;}</style></defs><title>notification_bell</title><g id="Layer_13" data-name="Layer 13"><path class="cls-1" d="M58.5,51.84c0,1.19-1.17,1.93-3.88,1.93L32,53.73l-22.62,0c-2.71,0-3.88-.74-3.88-1.93a1.47,1.47,0,0,1,1.28-1.58s6.05-.42,6.05-18.94,13.28-23,15.47-23S28.71,4.2,32,4.2s1.52,4.12,3.7,4.12,15.47,4.49,15.47,23,6,18.94,6,18.94A1.47,1.47,0,0,1,58.5,51.84Z"/><path class="cls-1" d="M38.28,55.86A7.43,7.43,0,0,1,32,59.8a7.42,7.42,0,0,1-6.28-3.94H38.28Z"/></g></svg>